<?xml version="1.0" encoding="utf-8"?>
<!-- Generator: Adobe Illustrator 26.3.1, SVG Export Plug-In . SVG Version: 6.00 Build 0)  -->
<svg version="1.1" id="Layer_1" xmlns="http://www.w3.org/2000/svg" xmlns:xlink="http://www.w3.org/1999/xlink" x="0px" y="0px"
	 viewBox="0 0 293.8 312.4" enable-background="new 0 0 293.8 312.4" xml:space="preserve">
<path fill="#FFFFFF" d="M253.5,285H39.9c-8.3,0-15-6.7-15-15V56.5c0-8.3,6.7-15,15-15h213.5c8.3,0,15,6.7,15,15V270
	C268.5,278.3,261.7,285,253.5,285z"/>
<path fill="#5CBA47" d="M79.8,64.1L79.8,64.1c-4,0-7.3-3.3-7.3-7.3V26.1c0-4,3.3-7.3,7.3-7.3l0,0c4,0,7.3,3.3,7.3,7.3v30.7
	C87.1,60.8,83.9,64.1,79.8,64.1z"/>
<g>
	<ellipse transform="matrix(0.1602 -0.9871 0.9871 0.1602 11.0073 126.5064)" fill="none" cx="79.8" cy="56.8" rx="9.9" ry="9.9"/>
	<path fill="#5CBA47" d="M255.4,41.5H38c-7.2,0-13.1,5.8-13.1,13.1v69.6h243.5V54.5C268.5,47.3,262.6,41.5,255.4,41.5z M79.8,66.7
		c-5.5,0-9.9-4.4-9.9-9.9c0-5.5,4.4-9.9,9.9-9.9c5.5,0,9.9,4.4,9.9,9.9C89.7,62.2,85.3,66.7,79.8,66.7z M213.5,66.7
		c-5.5,0-9.9-4.4-9.9-9.9c0-5.5,4.4-9.9,9.9-9.9c5.5,0,9.9,4.4,9.9,9.9C223.4,62.2,219,66.7,213.5,66.7z"/>
</g>
<path fill="#5CBA47" d="M213.5,64.1L213.5,64.1c-4,0-7.3-3.3-7.3-7.3V26.1c0-4,3.3-7.3,7.3-7.3l0,0c4,0,7.3,3.3,7.3,7.3v30.7
	C220.8,60.8,217.5,64.1,213.5,64.1z"/>
</svg>
