<?xml version="1.0" encoding="utf-8"?>
<!-- Generator: Adobe Illustrator 26.3.1, SVG Export Plug-In . SVG Version: 6.00 Build 0)  -->
<svg version="1.1" id="Layer_1" xmlns="http://www.w3.org/2000/svg" xmlns:xlink="http://www.w3.org/1999/xlink" x="0px" y="0px"
		viewBox="0 0 193 133" enable-background="new 0 0 193 133" xml:space="preserve" fill="#6abf4b">
	<g>
		<path d="M70.4,26.4c-4.7-1.5-9.6-2.4-14.8-2.4C29.3,24,8,45.3,8,71.6c0,24.4,18.4,44.6,42.1,47.3c-8.7-10.4-13.9-23.8-13.9-38.4
			C36.2,56.7,50.2,36.1,70.4,26.4z"/>
		<path d="M138.4,7.9c-12.8,0-24.4,5.1-33,13.3c28.8,4.4,50.9,29.3,50.9,59.3c0,7.1-1.3,14-3.6,20.3C172,94.8,186,76.8,186,55.5
			C186,29.2,164.7,7.9,138.4,7.9z"/>
		<path d="M96.3,32.9c-26.3,0-47.6,21.3-47.6,47.6c0,26.3,21.3,47.6,47.6,47.6c26.3,0,47.6-21.3,47.6-47.6
			C143.9,54.3,122.6,32.9,96.3,32.9z M115.7,99.9c-1.3,2.4-3,4.3-5.1,5.7c-2.1,1.4-5,2.4-8.9,3.2v7.1h-7.8v-6.8
			c-3.6-0.4-6.8-1.2-9.3-2.5c-3.5-1.7-6.8-4-9.8-6.9l7.9-7.3c5.1,4.8,10,7.3,14.8,7.3c2.4,0,4.5-0.8,6.2-2.3c1.7-1.5,2.6-3.3,2.6-5.3
			c0-1.7-0.6-3.2-1.7-4.5c-1.1-1.3-3.3-2.6-6.6-4C91.5,80.8,87,78.6,84.7,77c-2.3-1.6-4.1-3.4-5.2-5.4c-1.2-2-1.7-4.1-1.7-6.4
			c0-3.8,1.5-7,4.6-9.6c3.1-2.7,6.9-4.1,11.6-4.3v-5.9h7.8v6.4c2.7,0.6,5,1.3,6.9,2.3c1.9,1,4.1,2.6,6.7,4.9l-8.1,7
			c-3.7-3.4-7.3-5.1-10.9-5.1c-2.1,0-3.8,0.5-5.2,1.5c-1.3,1-2,2.2-2,3.5c0,1.1,0.6,2.2,1.8,3.3c1.1,1.1,3.5,2.3,6.9,3.6
			c6.2,2.3,10.4,4.2,12.7,5.9c2.3,1.6,4,3.6,5.3,5.8c1.2,2.3,1.8,4.8,1.8,7.6C117.7,94.9,117,97.5,115.7,99.9z"/>
	</g>
</svg>
