<?xml version="1.0" encoding="utf-8"?>
<!-- Generator: Adobe Illustrator 26.3.1, SVG Export Plug-In . SVG Version: 6.00 Build 0)  -->
<svg version="1.1" id="Layer_1" xmlns="http://www.w3.org/2000/svg" xmlns:xlink="http://www.w3.org/1999/xlink" x="0px" y="0px"
	 viewBox="0 0 369.8 261.4" enable-background="new 0 0 369.8 261.4" xml:space="preserve" fill='#6abf4b'>
<path d="M139.6,155.8L19.2,36.6v194.7c0,6,7.9,13.9,13.9,13.9c99.8,0,193.8,0,293.5,0c6.1,0,13.9-7.9,13.9-13.9V36.6L220.4,155.8
	l-28.9,28.4c-3.2,3.3-7,4.9-11.4,4.9c-4.5,0-8.4-1.6-11.7-4.9L139.6,155.8L139.6,155.8z M32.4,17.2l141.9,140.9
	c1.5,1.5,3.4,2.3,5.7,2.3c2.3,0,4.2-0.8,5.7-2.3L327.5,17.2H32.4L32.4,17.2z"/>
</svg>
