<?xml version="1.0" encoding="utf-8"?>
<!-- Generator: Adobe Illustrator 26.3.1, SVG Export Plug-In . SVG Version: 6.00 Build 0)  -->
<svg version="1.1" id="Isolation_Mode" xmlns="http://www.w3.org/2000/svg" xmlns:xlink="http://www.w3.org/1999/xlink" x="0px"
	 y="0px" viewBox="0 0 212 360" enable-background="new 0 0 212 360" xml:space="preserve">
<g>
	<path d="M55.5,351.1c0,0-14.5,1.5-18.6-20.8c-3.3-17.7,6.8-142.1,6.6-160.5c-0.3-33.1-17.9-23.4-25.7-44.5
		c-4.5-12.2,4.2-105.1,4.2-105.1c0-3.7,2.9-6.7,6.6-6.7c3.7,0,6.7,2.9,6.7,6.6l-1.8,74.7c0,3.7,3,6.7,6.7,6.6c3.7,0,6.7-3,6.6-6.7
		L46.3,20c0-3.7,2.9-6.7,6.6-6.7c3.7,0,6.7,2.9,6.7,6.6l0.6,74.7c0,3.7,3,6.7,6.7,6.6c3.7,0,6.7-3,6.6-6.7l-2.9-74.7
		c0-3.7,2.9-6.7,6.6-6.7C81,13,84,16,84,19.7c0,0,10.1,92.8,5.8,105c-7.5,21.2-25.3,11.8-25,44.9c0.1,18.5,12,142.6,9.1,160.4
		C70.1,352.3,55.5,351.1,55.5,351.1z"/>
	<path d="M195.3,78c-0.3-35.9-22.9-64.9-40.6-65.6c-0.2,0-0.5,0-0.7,0c0,0,0,0,0,0c0,0,0,0,0,0c-17.9,0.1-40.7,29.8-40.4,66.3
		c0.4,48.5,26.1,43.9,30.8,61.8c0,0.1,0,0.2,0,0.3c0.1,18.5-9.7,170.9-6.4,188.6c4.1,22.3,18.6,20.8,18.6,20.8s14.6,1.2,18.3-21.1
		c3-17.8-9.1-170-9.3-188.5c0-0.3,0-0.6,0-0.9C170.4,122.4,195.7,126,195.3,78z"/>
</g>
</svg>
