<?xml version="1.0" encoding="utf-8"?>
<!-- Generator: Adobe Illustrator 26.3.1, SVG Export Plug-In . SVG Version: 6.00 Build 0)  -->
<svg version="1.1" id="Layer_1" xmlns="http://www.w3.org/2000/svg" xmlns:xlink="http://www.w3.org/1999/xlink" x="0px" y="0px"
	 viewBox="0 0 673.5 624.6" enable-background="new 0 0 673.5 624.6" xml:space="preserve">
<g>
	<path fill="#d8dde4" d="M542.9,398.7c12.2-25.3,15.8-50.3,20.4-78.3c-34.7,1.5-30.1,52.8-31.9,84
		C536.3,403.1,539,401.7,542.9,398.7z"/>
	<path fill="#d8dde4" d="M612.2,320.2c0-3.3,0-6.6,0-9.9c-0.1-15.6-32.8-21.6-37.5-4.7c-9.6,35.1-10.4,67-22.7,90.3
		C575.5,380.7,589.5,350.7,612.2,320.2z"/>
	<path fill="#d8dde4" d="M623.2,320.2c-39.5,49.9-51.8,101.1-116.4,92.9l-35.4,53.5l-8.8-5.1l56.7-89c11.2-17.5-23.6-46.3-41.9-24
		c-30.5,37.1-63.6,80.6-90.2,120.6c-20.3,30.6-26.4,90.4-24.4,127.1h85.5c4.3-25,6.7-53.6,28.1-70c46.4-35.7,105.5-63.7,141.7-111.1
		c17.2-22.4,28.9-48.7,39.7-74.8C664.2,325.1,634.7,305.7,623.2,320.2z"/>
	<path fill="#d8dde4" d="M147.1,404.3c-1.7-31.2,2.8-82.4-31.9-84c4.7,28.1,8.2,53,20.4,78.3C139.5,401.7,142.2,403.1,147.1,404.3z"
		/>
	<path fill="#d8dde4" d="M126.5,395.9c-12.3-23.3-13.1-55.2-22.7-90.3c-4.6-16.9-37.3-10.9-37.5,4.7c0,3.3,0,6.6,0,9.9
		C89,350.7,103,380.7,126.5,395.9z"/>
	<path fill="#d8dde4" d="M201.1,348.5c-18.3-22.3-53.1,6.5-41.9,24l56.7,89l-8.8,5.1l-35.4-53.5c-64.6,8.2-76.9-43-116.4-92.9
		c-11.5-14.6-41,4.9-34.6,20.1c10.8,26.1,22.6,52.4,39.7,74.8c36.3,47.4,95.4,75.4,141.7,111.1c21.4,16.4,23.8,45,28.1,70l0,0h85.4
		c2.2-39.2-3.4-95.5-24.4-127.1C264.7,429.1,231.6,385.6,201.1,348.5z"/>
	<path fill="#d8dde4" d="M485,107.3c0,0,9.8-4,10.3-13.9c0.4-8.5-8.5-23.9-8.5-23.9s-10.3,14.5-10.7,23
		C475.6,102.5,485,107.3,485,107.3z"/>
	<path fill="#d8dde4" d="M453.9,146.3c6.3-15.5,16-19,23.8-21.6c-1,1.4-2.1,2.7-3,4.1c-0.9,1.4-1.8,2.7-2.6,4.1
		c-1.2,1.8-2.3,3.7-3.3,5.6c-1.9,3.2-3.4,6.6-5,9.8c-1.4,3.3-2.9,6.4-4,9.5c-1.2,3.1-2.2,6-3,8.7c-1,3.1-1.8,5.9-2.4,8.4
		c-0.5,1.9-0.9,3.7-1.2,5.1c-0.6,3.3-0.8,5.1-0.8,5.1l5.5,0.8c0,0,0.2-1.9,0.7-5.1c0.6-3.1,1.5-7.6,3.1-12.9
		c0.7-2.7,1.7-5.5,2.8-8.5c1-3,2.4-6.1,3.7-9.3c1.5-3.1,2.9-6.4,4.7-9.6c0.5-0.9,1-1.9,1.5-2.8c1.3-2.3,2.6-4.5,4-6.7
		c0.2-0.4,0.5-0.7,0.8-1.1c1.8-2.7,3.6-5.3,5.6-7.8c0.9-1.1,1.9-2.2,2.8-3.3c1.3-1.5,2.7-3,4.1-4.4c0.1-0.1,0.1-0.2,0.2-0.2
		c2.4-2.5,4.9-4.6,7.4-6.5c1.4-1.2,2.9-2.2,4.3-3.1c2.8,2,9.5,5.8,17.2,2.7c8.7-3.5,19.9-19.5,19.9-19.5s-19.2-3.6-27.9-0.1
		c-7.2,2.9-9.5,9.6-10.2,13.2c-1.8,1.1-3.8,2.2-5.5,3.7c-2.7,2-5.4,4.1-7.9,6.7c-0.5,0.5-1,1-1.5,1.5c-1.4,1.4-2.7,2.8-4.1,4.3
		c-0.7,0.7-1.3,1.5-2,2.2c-0.6,0.7-1.1,1.5-1.6,2.2c-6.8-3.6-10.2-9.6-12.2-13.8c-4.2-8.8-12.7-13.9-21.7-13.9
		c-8.1,0-16.7,4.1-23.1,13.4c-3.2,5.3-8.6,10.2-14,13.8c-0.4,0.2-0.7,0.5-1,0.7c-5,3.2-10,4.6-14.7,4.6c-26.7,0-48.2-43.6-54.1-64
		c-0.3-0.9-0.5-1.9-0.7-2.8c-3.1-11.3-5.3-23.3-5.7-35c0-1,0.1-6.2,0.9-9.8c-31.8,20.4-20,63.1-20,63.1s-8-7.6-15.5-7.6
		c-2.8,0-5.5,1.1-7.7,4c-8.8,11.6,9.5,31.3,9.5,31.3s-3.7-1.7-7.8-1.7c-4,0-8.4,1.7-9.9,8.2c-3.7,17,21.1,29.4,21.1,29.4
		s-2.4-0.9-5.3-0.9c-3.6,0-8,1.4-10,7.5c-3.1,9.5,26.7,27.7,50.1,27.9c-17.7,16.2-68.4,18.1-91.3,18.1c-7,0-11.4-0.2-11.4-0.2
		s14.8,46,46.1,49.3c2,0.2,4,0.3,6,0.3c28.2,0,49.7-21.6,72.8-32.8C384.1,199.3,437.3,211,453.9,146.3z M446.6,109.5
		c0.3-2.9,2.9-5,5.8-4.7c2.9,0.3,5,2.9,4.7,5.8c-0.3,2.9-2.9,5-5.8,4.7C448.4,115,446.3,112.4,446.6,109.5z"/>
	<path fill="#d8dde4" d="M474.2,148c0,0,4.3,10.8,15.3,11.3c9.4,0.4,26.2-9.4,26.2-9.4s-15.9-11.3-25.3-11.7
		C479.5,137.7,474.2,148,474.2,148z"/>
	<path fill="#d8dde4" d="M393.2,115.5c2.9,0,5.8-0.9,8.8-2.8c0.9-0.6,1.8-1.2,2.6-1.8c-4.5-11.3-8.8-25.4-9.8-46
		c-1.7-34.3,17.7-51.4,17.7-51.4c-36.4,3-47.3,44.8-47.3,44.8s-6-19.9-18.4-14.6c-0.3,0.1-0.5,0.3-0.7,0.4c1,5.1,2.1,10.2,3.6,15.5
		C355.5,79.6,375,115.5,393.2,115.5z"/>
	<path fill="#d8dde4" d="M504.2,114c-3.4-0.2-6.2,0.8-8.6,2.1c-2.1,1.2-3.8,2.7-5,4c-1.8,2-2.7,3.7-2.7,3.7s0.5,1.1,1.4,2.6
		c0.8,1.3,2.1,3,3.8,4.5c2.4,2.1,5.7,4,10,4.2c9.4,0.4,26.2-9.4,26.2-9.4S513.5,114.4,504.2,114z"/>
</g>
</svg>
