<?xml version="1.0" encoding="utf-8"?>
<!-- Generator: Adobe Illustrator 26.3.1, SVG Export Plug-In . SVG Version: 6.00 Build 0)  -->
<svg version="1.1" id="Layer_1" xmlns="http://www.w3.org/2000/svg" xmlns:xlink="http://www.w3.org/1999/xlink" x="0px" y="0px"
	 viewBox="0 0 262 204" enable-background="new 0 0 262 204" xml:space="preserve" fill="white">
<path d="M76.9,195.5c-1.3-0.1-2.6-0.6-3.8-1.3l-0.4-0.3l-0.9-0.9c-19.2-19.8-41-42.2-53.6-69.9C7.4,99.4,6.2,70.4,15,47.5
	c6.6-17.1,18.4-29.8,34.2-36.6C57.1,7.4,65.5,6,74.1,6.6c10.5,0.7,20.9,4.5,30,10.9c10.2,7.1,17.9,16.8,22.3,28l3.3,8.4l8.3-3.5
	c14.6-6.2,33.9-13.1,53.8-11.7c2.5,0.2,5,0.5,7.5,0.9c10.4,1.8,20.2,5.7,28.2,11.4c9.9,6.9,16.8,16.2,19.9,26.9
	c5.2,17.7-0.8,38.7-15.7,54.9c-20.6,22.4-49.5,27.9-77.3,33.2c-22.7,4.3-44.1,8.4-62.2,20.7c-0.8,0.6-1.7,0.9-2.6,1.2l-3.6,0.8
	l-1.9,3.1c-0.2,0.3-0.4,0.7-0.7,0.9C81.8,194.6,79.3,195.7,76.9,195.5z M73.3,21.3C51.3,19.8,36,37,29.5,52.2
	C10.4,96.9,39.1,136.6,73,172.7l5.1,5.5l6.2-4.1c20.7-13.8,44.9-18.5,68.2-23l6.5-1.3c25.3-5,53.5-12.3,68.2-35.5
	c11.6-18.4,7.8-39.7-9.3-51.7c-3.7-2.6-8-4.7-12.6-6.2c-4.4-1.4-9-2.3-13.8-2.7c-22.3-1.5-44.9,9-64.9,18.2c-1.5,0.7-2.9,1-4.3,0.9
	c-1.3-0.1-2.4-0.5-3.5-1.2c-2.1-1.5-3.3-3.9-3.3-6.5c-0.1-13.6-7.4-26.8-19.7-35.4c-5.4-3.8-11.5-6.4-17.7-7.7
	C76.5,21.6,74.9,21.4,73.3,21.3z"/>
</svg>
