<?xml version="1.0" encoding="utf-8"?>
<!-- Generator: Adobe Illustrator 26.3.1, SVG Export Plug-In . SVG Version: 6.00 Build 0)  -->
<svg version="1.1" id="Layer_1" xmlns="http://www.w3.org/2000/svg" xmlns:xlink="http://www.w3.org/1999/xlink" x="0px" y="0px"
	 viewBox="0 0 396.6 382.2" enable-background="new 0 0 396.6 382.2" xml:space="preserve" fill="#6abf4b">
<g>
	<path fill-rule="evenodd" clip-rule="evenodd" d="M237.6,107.8c-5.8,9.4-38.4,41-50.1,47c-28.4,14.4-63.5,0.2-71.8-18.5
		c22.3-24.5,52.4-50.8,76.5-74.5C178,31.8,94.5,9.7,47.2,66C5.8,115.4,33.2,195.9,66.7,214.1c10.6-8.4,25.9-31,41.8-33.4
		c25.1-3.7,36.3,13.5,40,34.4c21.4,1.8,32.1,13.2,34,34.7c22.3,2.4,32.6,12.1,34.5,34.6c37.1,7,25,24,45.6,21.4
		c8-1,15.3-9.1,14-18.1c-0.5-3.1-4.9-9.6-11.8-16.4l-37.4-37c-9.1-9.2-16.5-16.7-21.6-22.8l-5.5-5.5c-2.8-2.8-3.6-6.8-2.4-10.2
		c0.2-1.8,0.9-3.3,2.3-4.8c2.7-2.8,5.1-3.3,7.7-2c2.4,0.1,4.7,1.1,6.5,2.9l77.6,77.7c6.6,6.6,29-10.6,16.9-22.6l-72.1-72.2
		c-2.3-2.3-3.2-5.4-2.8-8.4c0-2.2,0.8-4.3,2.9-6.3c0.6-0.6,1.4-0.9,2.1-1.1c3.8-2.1,8.7-1.5,11.9,1.7l73.8,73.9
		c9.3,7.4,27.2-12,20.4-18.8L237.6,107.8z"/>
	<path fill-rule="evenodd" clip-rule="evenodd" d="M203.5,72.5l-55.3,51.6c-6.4,6-10.3,11.5-11,14.2c30,8.8,44.1,4.5,60.9-12.3
		c52.9-52.7,31-54,102.8,17.5c9.7,9.6,50.2,52.9,57.8,56.8C431.5,86.6,298.9-13.3,203.5,72.5z"/>
	<path fill-rule="evenodd" clip-rule="evenodd" d="M128.7,198.3L128.7,198.3c-5.9-6.4-15.9-6.8-22.3-0.9l-28.3,26.2
		c-6.4,5.9-6.8,15.9-0.9,22.3h0c5.9,6.4,15.9,6.8,22.3,0.9l28.3-26.2C134.2,214.7,134.6,204.6,128.7,198.3z"/>
	<path fill-rule="evenodd" clip-rule="evenodd" d="M166.9,238.4L166.9,238.4c-5.9-6.4-15.9-6.8-22.3-0.9l-28.3,26.2
		c-6.4,5.9-6.8,15.9-0.9,22.3h0c5.9,6.4,15.9,6.8,22.3,0.9l28.3-26.2C172.4,254.8,172.8,244.8,166.9,238.4z"/>
	<path fill-rule="evenodd" clip-rule="evenodd" d="M199.3,272.3L199.3,272.3c-5.9-6.4-15.9-6.8-22.3-0.9l-28.3,26.2
		c-6.4,5.9-6.8,15.9-0.9,22.3l0,0c5.9,6.4,15.9,6.8,22.3,0.9l28.3-26.2C204.8,288.7,205.2,278.7,199.3,272.3z"/>
	<path fill-rule="evenodd" clip-rule="evenodd" d="M231.8,306.2c-5.9-6.4-15.9-6.8-22.3-0.9l-28.3,26.2c-6.4,5.9-6.8,15.9-0.9,22.3
		h0c5.9,6.4,15.9,6.8,22.3,0.9l28.3-26.2C237.3,322.6,237.7,312.6,231.8,306.2L231.8,306.2z"/>
</g>
</svg>
