<?xml version="1.0" encoding="utf-8"?>
<!-- Generator: Adobe Illustrator 26.3.1, SVG Export Plug-In . SVG Version: 6.00 Build 0)  -->
<svg version="1.1" id="Layer_1" xmlns="http://www.w3.org/2000/svg" xmlns:xlink="http://www.w3.org/1999/xlink" x="0px" y="0px"
	 viewBox="0 0 163.8 153.4" enable-background="new 0 0 163.8 153.4" xml:space="preserve" fill="#6abf4b">
<g>
	<path d="M149.4,47.7c-3.5-8.3-8.5-15.7-14.9-22c-6.4-6.4-13.8-11.4-22-14.9c-8.5-3.6-17.6-5.4-27-5.4c-9.4,0-18.4,1.8-27,5.4
		c-8.3,3.5-15.7,8.5-22,14.9c-6.4,6.4-11.4,13.8-14.9,22c-3.6,8.5-5.4,17.6-5.4,27c0,12.5,3.3,24.7,9.7,35.3
		c0.1,0.1-12.8,32.9-12.8,32.9c-0.1,0.3-0.1,0.6,0.1,0.8c0.1,0.1,0.3,0.2,0.5,0.2c0.1,0,0.2,0,0.2,0l34.5-10.6
		c11.1,7,23.9,10.7,37.1,10.7c9.4,0,18.4-1.8,27-5.4c8.3-3.5,15.7-8.5,22-14.9c6.4-6.4,11.4-13.8,14.9-22c3.6-8.5,5.4-17.6,5.4-27
		C154.8,65.3,153,56.2,149.4,47.7z M83.8,119.2c-4.7,0-8.5-3.8-8.5-8.5c0-4.7,3.8-8.5,8.5-8.5c4.7,0,8.5,3.8,8.5,8.5
		C92.4,115.4,88.6,119.2,83.8,119.2z M101.3,74.6c-6.2,5.2-10.6,8.8-10.6,20.4H77.6c0-14.1,3-19,9.4-24.5c5.2-4.5,9.8-7.4,9.8-15.5
		c0-9.8-7.5-13.4-11.8-13.4c-9.1,0-13.9,6.1-14.5,15.6H56.6c0.9-16.4,12-27,29-27c14.7,0,26.4,8.8,26.4,24.4
		C111.9,65.9,106.6,70.2,101.3,74.6z"/>
</g>
</svg>
