<?xml version="1.0" encoding="utf-8"?>
<!-- Generator: Adobe Illustrator 26.3.1, SVG Export Plug-In . SVG Version: 6.00 Build 0)  -->
<svg version="1.1" id="Layer_1" xmlns="http://www.w3.org/2000/svg" xmlns:xlink="http://www.w3.org/1999/xlink" x="0px" y="0px"
	 viewBox="0 0 307.9 247.8" enable-background="new 0 0 307.9 247.8" xml:space="preserve">
<g>
	<path fill="#bdc5ce" d="M175.8,49.6c6.3-8.9,14.4-12.9,16.1-11.7c-0.1,0.9-0.1,1.9-0.1,2.8c0,15.9,12.9,28.7,28.7,28.7
		c15.9,0,28.7-12.9,28.7-28.7c0-0.9-0.1-1.9-0.1-2.8c1.6-1.3,9.8,2.7,16.1,11.7c1.9,1.5,9.4-9.6,11-17.4c1.6-7.8-13.4-13.8-28.8-7.4
		c-0.9,0.4-1.7,0.7-2.4,1.1c-5-8.3-14.1-13.9-24.6-13.9c-10.4,0-19.5,5.6-24.6,13.9c-0.7-0.4-1.4-0.7-2.3-1.1
		c-15.4-6.3-30.4-0.4-28.8,7.4C166.5,40.1,173.9,51.2,175.8,49.6z"/>
	<path fill="#bdc5ce" d="M287.6,122.2l-26-31c-7.8-9.3-19.3-14.7-31.5-14.7h-9.5H211c-12.2,0-23.7,5.4-31.5,14.7l-26,31
		c-4.5,5.3-4.1,13.7,0.8,18.6c4.9,4.9,12.6,4.6,17.1-0.7l19.6-23.4c0.3-0.3,0.8-0.1,0.8,0.3v0.7c0,1.6-0.4,3.2-1.2,4.7l-25,44.9
		c-3.9,7,1.2,15.6,9.2,15.6h12.4c2.5,0,4.6,2,4.6,4.6v38.1c0,7,5.6,12.6,12.6,12.6h0c7,0,12.6-5.6,12.6-12.6v-39.1
		c0-2,1.6-3.6,3.6-3.6c0,0,0,0,0,0c0,0,0,0,0,0c2,0,3.6,1.6,3.6,3.6v39.1c0,7,5.6,12.6,12.6,12.6s12.6-5.6,12.6-12.6v-38.1
		c0-2.5,2-4.6,4.6-4.6h12.4c8,0,13.1-8.6,9.2-15.6l-25-44.9c-0.8-1.4-1.2-3-1.2-4.7V117c0-0.4,0.5-0.6,0.8-0.3l19.6,23.4
		c4.5,5.3,12.2,5.7,17.1,0.7h0C291.7,135.9,292,127.6,287.6,122.2z"/>
	
		<ellipse transform="matrix(0.3827 -0.9239 0.9239 0.3827 9.0765 95.0594)" fill="#bdc5ce" cx="75.7" cy="40.7" rx="28.7" ry="28.7"/>
	<path fill="#bdc5ce" d="M116.8,91.3C109,82,97.5,76.6,85.3,76.6h-9.5h0h-9.5c-12.2,0-23.7,5.4-31.5,14.7L8.1,123.1
		c-4.5,5.3-3.8,13.3,1.6,17.7s13.3,3.8,17.7-1.6l16.6-19.7c1.1-1.3,3.2-0.5,3.2,1.2v44.1v60.7c0,7,5.6,12.6,12.6,12.6
		s12.6-5.6,12.6-12.6v-57.2c0-1.9,1.5-3.5,3.5-3.5c1.9,0.1,3.5,1.6,3.5,3.5v57.2c0,7,5.6,12.6,12.6,12.6c7,0,12.6-5.6,12.6-12.6
		v-60.7v-44.1c0-1.7,2.1-2.5,3.2-1.2l16.6,19.7c4.5,5.3,12.4,6,17.7,1.6c5.3-4.5,6-12.4,1.6-17.7L116.8,91.3z"/>
</g>
</svg>
