<?xml version="1.0" encoding="utf-8"?>
<!-- Generator: Adobe Illustrator 26.3.1, SVG Export Plug-In . SVG Version: 6.00 Build 0)  -->
<svg version="1.1" id="Layer_1" xmlns="http://www.w3.org/2000/svg" xmlns:xlink="http://www.w3.org/1999/xlink" x="0px" y="0px"
	 viewBox="0 0 338 155" enable-background="new 0 0 338 155" xml:space="preserve" fill='#fff'>
<g>
	<path d="M101.3,110.7c-9.5,0-17.1,7.7-17.1,17.2c0,9.5,7.7,17.1,17.2,17.1c9.5,0,17.1-7.7,17.1-17.2
		C118.5,118.3,110.8,110.6,101.3,110.7z M102,117.1c1.8,0,2.8,0.4,2.8,0.6c0,0.5-1.3,1-2.8,1c-1.4,0-2.8-0.4-2.8-1
		C99.3,117.5,100.2,117.1,102,117.1z M109,126.6l-0.4-2.3l-0.2-0.4c-0.6,4.3-0.2,8.6,0,13.3c0,0.3-0.2,0.5-0.4,0.5
		c-3.9,0.3-7.9,0.4-11.9,0c-0.3,0-0.4-0.2-0.4-0.5c0.2-4.8,0.4-9-0.2-13.1l-0.1,0.3l-0.3,2.3c-2.1,0.2-3.8-1.3-3.8-1.3
		c0.3-2.1,1.1-4.5,2.5-5.8c0.7-0.7,3.6-1.6,4.4-1.8c-0.3,0.6,0.5,2.1,3.9,2.1c3.4,0,4.1-1.5,3.9-2.1c0.7,0.2,3.6,1,4.4,1.7
		c1.4,1.4,2.2,3.7,2.5,5.8C112.8,125.3,111.1,126.9,109,126.6z"/>
</g>
<path d="M44.1,43.9c-0.3,0.5-0.6,0.8-0.9,1.1c-0.3,0.2-0.8,0.4-1.3,0.4c-0.5,0-1-0.1-1.5-0.4c-0.5-0.3-1.1-0.6-1.8-1
	c-0.7-0.4-1.4-0.7-2.3-1c-0.9-0.3-1.8-0.4-2.9-0.4c-1.9,0-3.3,0.4-4.2,1.2c-0.9,0.8-1.4,1.9-1.4,3.3c0,0.9,0.3,1.6,0.8,2.2
	c0.6,0.6,1.3,1.1,2.2,1.5s1.9,0.8,3.1,1.2c1.2,0.4,2.4,0.7,3.6,1.2c1.2,0.4,2.4,0.9,3.6,1.5c1.2,0.6,2.2,1.3,3.1,2.2
	c0.9,0.9,1.6,2,2.2,3.3c0.6,1.3,0.8,2.8,0.8,4.7c0,2-0.3,3.9-1,5.7c-0.7,1.8-1.7,3.3-3,4.6c-1.3,1.3-3,2.3-4.9,3.1s-4.2,1.1-6.6,1.1
	c-1.4,0-2.7-0.1-4.1-0.4c-1.4-0.3-2.8-0.7-4.1-1.2c-1.3-0.5-2.6-1.1-3.7-1.8c-1.2-0.7-2.2-1.5-3-2.3l3-4.7c0.2-0.4,0.5-0.6,0.9-0.9
	c0.4-0.2,0.8-0.3,1.3-0.3c0.6,0,1.2,0.2,1.8,0.6c0.6,0.4,1.3,0.8,2.1,1.3c0.8,0.5,1.7,0.9,2.6,1.3c1,0.4,2.2,0.6,3.5,0.6
	c1.8,0,3.3-0.4,4.3-1.2c1-0.8,1.5-2.1,1.5-3.8c0-1-0.3-1.8-0.8-2.5c-0.6-0.6-1.3-1.2-2.2-1.6c-0.9-0.4-1.9-0.8-3.1-1.1
	c-1.2-0.3-2.3-0.7-3.6-1.1c-1.2-0.4-2.4-0.9-3.6-1.4c-1.2-0.6-2.2-1.3-3.1-2.2s-1.6-2.1-2.2-3.5c-0.6-1.4-0.8-3.1-0.8-5.1
	c0-1.6,0.3-3.2,1-4.8c0.7-1.6,1.6-2.9,2.9-4.2c1.3-1.2,2.8-2.2,4.7-2.9c1.9-0.7,4-1.1,6.4-1.1c1.3,0,2.6,0.1,3.9,0.3
	c1.3,0.2,2.5,0.5,3.6,0.9c1.1,0.4,2.2,0.9,3.2,1.5c1,0.6,1.9,1.2,2.6,1.9L44.1,43.9z"/>
<path d="M83.9,35.1v8H71.7v35.6H61.6V43.1H49.3v-8H83.9z"/>
<path d="M116.2,35.1v7.8H98.3V53H112v7.5H98.3v10.4h17.9v7.8H88.1V35.1H116.2z"/>
<path d="M118.7,35.1h8.5c0.9,0,1.6,0.2,2.2,0.6c0.6,0.4,1,0.9,1.2,1.6l6,22.7c0.2,0.7,0.4,1.5,0.6,2.4c0.2,0.8,0.3,1.7,0.4,2.6
	c0.2-0.9,0.4-1.8,0.7-2.6c0.2-0.8,0.5-1.6,0.7-2.4l7.1-22.7c0.2-0.6,0.6-1.1,1.2-1.5c0.6-0.4,1.3-0.7,2.1-0.7h3
	c0.9,0,1.6,0.2,2.2,0.6c0.6,0.4,1,0.9,1.2,1.6l7,22.7c0.2,0.7,0.4,1.4,0.7,2.2c0.2,0.8,0.4,1.6,0.6,2.5c0.2-0.9,0.3-1.7,0.5-2.5
	c0.2-0.8,0.3-1.5,0.5-2.2l6-22.7c0.2-0.6,0.5-1.1,1.1-1.5s1.3-0.7,2.2-0.7h8l-13.5,43.6h-9.2l-8.2-27c-0.1-0.4-0.3-0.9-0.4-1.4
	c-0.1-0.5-0.3-1-0.4-1.6c-0.1,0.6-0.3,1.1-0.4,1.6c-0.1,0.5-0.3,1-0.4,1.4l-8.3,27h-9.2L118.7,35.1z"/>
<path d="M196.2,64.1v14.6h-10.1V35.1h15.4c3.1,0,5.7,0.4,7.9,1.1c2.2,0.7,4,1.7,5.4,3c1.4,1.3,2.5,2.8,3.2,4.5c0.7,1.7,1,3.6,1,5.6
	c0,2.2-0.3,4.2-1,6c-0.7,1.8-1.8,3.4-3.2,4.7c-1.4,1.3-3.3,2.3-5.5,3c-2.2,0.7-4.8,1.1-7.8,1.1H196.2z M196.2,56.5h5.3
	c2.6,0,4.5-0.6,5.7-1.9s1.7-3,1.7-5.3c0-1-0.2-1.9-0.4-2.7c-0.3-0.8-0.8-1.5-1.4-2.1c-0.6-0.6-1.4-1-2.3-1.4c-0.9-0.3-2-0.5-3.3-0.5
	h-5.3V56.5z"/>
<path d="M329.9,35.1v8h-12.3v35.6h-10.1V43.1h-12.3v-8H329.9z"/>
<path d="M290.2,39.5h-67.1c-0.6,32.4,7.6,37.3,7.6,37.3v2.1c0,0.4,0.3,0.7,0.7,0.7h50.4c0.4,0,0.7-0.3,0.7-0.7v-2.1
	C282.5,76.8,290.8,71.9,290.2,39.5z"/>
<path d="M263.8,16.9c-2-4.9-7.7-7.6-13.2-5.9l-1.2,0.3c-5.5,1.6-8.7,6.9-7.6,12.1c-10.6,5.3-17.6,12.3-19.3,14l65.3-19.2
	C285.4,17.6,275.6,15.6,263.8,16.9z M245.3,21.8c-0.3-3.2,1.8-6.4,5.1-7.4l1.2-0.3c3.3-1,6.8,0.5,8.4,3.4c-2.4,0.4-5,1-7.5,1.7
	C249.9,19.9,247.6,20.8,245.3,21.8z"/>
<g>
	<path d="M40.6,91h3.5v1.5h-3.5v3.9h-1.5v-9h5.3v1.5h-3.8V91z"/>
	<path d="M47.9,87.3h1.6l3.5,9h-1.6l-0.8-2.1h-3.8l-0.8,2.1h-1.6L47.9,87.3z M47.3,92.8H50l-1.4-3.5L47.3,92.8z"/>
	<path d="M54.1,87.3h1.5v9h-1.5V87.3z"/>
	<path d="M59.5,88.8H57v-1.5h6.5v1.5H61v7.5h-1.5V88.8z"/>
	<path d="M70,87.3h1.5v9H70v-3.9h-3.8v3.9h-1.5v-9h1.5V91H70V87.3z"/>
	<path d="M78.7,87.3l2.9,4.5l2.9-4.5H86v9h-1.5v-6l-2.8,4.3l-2.8-4.3v6h-1.5v-9H78.7z"/>
	<path d="M89.4,91H93v1.5h-3.6v2.4h4v1.5h-5.5v-9h5.5v1.5h-3.9V91z"/>
	<path d="M96.4,91h3.6v1.5h-3.6v2.4h4v1.5h-5.5v-9h5.5v1.5h-3.9V91z"/>
	<path d="M103.6,88.8h-2.5v-1.5h6.5v1.5h-2.5v7.5h-1.5V88.8z"/>
	<path d="M109,87.3h1.5v9H109V87.3z"/>
	<path d="M114,87.3l4.5,6.2v-6.2h1.5v9h-1.4l-4.5-6.2v6.2h-1.5v-9H114z"/>
	<path d="M128,94.6v-1.9h-2v-1.4h3.6v4.1c0,0-1.1,1.1-3.3,1.1c-2.6,0-4.7-2-4.7-4.7s2-4.7,4.7-4.7c2.2,0,3.3,1.4,3.3,1.4l-1.1,1
		c0,0-0.7-0.9-2.3-0.9c-1.8,0-3.1,1.5-3.1,3.2s1.4,3.2,3.2,3.2C127.5,95,128,94.6,128,94.6z"/>
	<path d="M136.3,87.3l4.5,6.2v-6.2h1.5v9h-1.4l-4.5-6.2v6.2h-1.5v-9H136.3z"/>
	<path d="M145.8,91h3.6v1.5h-3.6v2.4h4v1.5h-5.5v-9h5.5v1.5h-3.9V91z"/>
	<path d="M152.8,91h3.6v1.5h-3.6v2.4h4v1.5h-5.5v-9h5.5v1.5h-3.9V91z"/>
	<path d="M165.6,91.8c0,2.6-1.8,4.5-4.5,4.5h-2.9v-9h2.9C163.8,87.3,165.6,89.2,165.6,91.8z M164.1,91.8c0-1.6-1.1-3-2.9-3h-1.4v6.1
		h1.4C163,94.8,164.1,93.4,164.1,91.8z"/>
	<path d="M169.9,92.6c-1.3-0.5-2.8-1.2-2.8-2.9c0-1.3,1.1-2.5,2.9-2.5c1.9,0,2.9,1.4,2.9,1.4l-1.1,1.1c0,0-0.7-1-1.9-1
		c-0.8,0-1.4,0.5-1.4,1.1c0,0.8,0.7,1,1.9,1.5c1.4,0.5,2.5,1.1,2.5,2.8c0,1.6-1.4,2.5-3.1,2.5c-2.3,0-3.3-1.8-3.3-1.8l1.2-1
		c0,0,0.8,1.4,2.1,1.4c0.8,0,1.6-0.3,1.6-1C171.5,93.2,171,92.9,169.9,92.6z"/>
	<path d="M178.7,87.3h1.5v9h-1.5V87.3z"/>
	<path d="M183.7,87.3l4.5,6.2v-6.2h1.5v9h-1.4l-4.5-6.2v6.2h-1.5v-9H183.7z"/>
	<path d="M204,91.8c0,2.7-1.9,4.7-4.6,4.7s-4.6-2-4.6-4.7s1.9-4.7,4.6-4.7S204,89.1,204,91.8z M202.4,91.8c0-1.7-1.2-3.2-3-3.2
		c-1.8,0-3,1.5-3,3.2s1.2,3.2,3,3.2C201.3,95,202.4,93.5,202.4,91.8z"/>
	<path d="M210.8,87.3h1.5V93c0,2-1.4,3.4-3.5,3.4s-3.5-1.4-3.5-3.4v-5.7h1.5c0,0,0,2.6,0,5.5c0,1.3,0.6,2.1,1.9,2.1
		c1.3,0,1.9-0.9,1.9-2.1C210.8,89.9,210.8,87.3,210.8,87.3z"/>
	<path d="M214.2,87.3h3c1.8,0,3,1.2,3,2.8c0,1.4-0.7,2.4-2,2.7l2.3,3.5h-1.8l-2.1-3.4h-0.7v3.4h-1.5V87.3z M218.6,90.1
		c0-0.9-0.6-1.3-1.6-1.3h-1.2v2.7h1.2C218,91.4,218.6,91,218.6,90.1z"/>
	<path d="M232,93.9l1,1c0,0-1.2,1.5-3.5,1.5c-2.6,0-4.6-2-4.6-4.7s2-4.7,4.6-4.7c2.2,0,3.3,1.4,3.3,1.4l-1,1c0,0-0.8-1-2.3-1
		c-1.8,0-3,1.5-3,3.2s1.2,3.2,3,3.2C231.2,95,232,93.9,232,93.9z"/>
	<path d="M242.8,91.8c0,2.7-1.9,4.7-4.6,4.7s-4.6-2-4.6-4.7s1.9-4.7,4.6-4.7S242.8,89.1,242.8,91.8z M241.2,91.8
		c0-1.7-1.2-3.2-3-3.2c-1.8,0-3,1.5-3,3.2s1.2,3.2,3,3.2C240.1,95,241.2,93.5,241.2,91.8z"/>
	<path d="M245.6,87.3l2.9,4.5l2.9-4.5h1.4v9h-1.5v-6l-2.8,4.3l-2.8-4.3v6h-1.5v-9H245.6z"/>
	<path d="M256.3,87.3l2.9,4.5l2.9-4.5h1.4v9H262v-6l-2.8,4.3l-2.8-4.3v6h-1.5v-9H256.3z"/>
	<path d="M270.9,87.3h1.5V93c0,2-1.4,3.4-3.5,3.4s-3.5-1.4-3.5-3.4v-5.7h1.5c0,0,0,2.6,0,5.5c0,1.3,0.6,2.1,1.9,2.1
		c1.3,0,1.9-0.9,1.9-2.1C270.9,89.9,270.9,87.3,270.9,87.3z"/>
	<path d="M275.7,87.3l4.5,6.2v-6.2h1.5v9h-1.4l-4.5-6.2v6.2h-1.5v-9H275.7z"/>
	<path d="M283.8,87.3h1.5v9h-1.5V87.3z"/>
	<path d="M289.2,88.8h-2.5v-1.5h6.5v1.5h-2.5v7.5h-1.5V88.8z"/>
	<path d="M298.1,96.3h-1.5v-3.5l-3.1-5.5h1.7l2.2,4l2.2-4h1.6l-3.1,5.5V96.3z"/>
</g>
<g>
	<path d="M144,110.7c-9.5,0-17.1,7.7-17.1,17.2c0,9.5,7.7,17.1,17.2,17.1c9.5,0,17.1-7.7,17.1-17.2
		C161.2,118.3,153.5,110.6,144,110.7z M142.5,123.9c-0.5,1.5-1.8,0.8-1.8,3.2c0,1.3,0.9,10.3,0.7,11.6c-0.3,1.6-1.3,1.5-1.3,1.5
		s-1.1,0.1-1.3-1.5c-0.2-1.3,0.5-10.3,0.5-11.6c0-2.4-1.3-1.7-1.9-3.2c-0.3-0.9,0.3-7.6,0.3-7.6c0-0.3,0.2-0.5,0.5-0.5
		c0.3,0,0.5,0.2,0.5,0.5l-0.1,5.4c0,0.3,0.2,0.5,0.5,0.5c0.3,0,0.5-0.2,0.5-0.5l0-5.4c0-0.3,0.2-0.5,0.5-0.5c0.3,0,0.5,0.2,0.5,0.5
		l0,5.4c0,0.3,0.2,0.5,0.5,0.5c0.3,0,0.5-0.2,0.5-0.5l-0.2-5.4c0-0.3,0.2-0.5,0.5-0.5c0.3,0,0.5,0.2,0.5,0.5
		C142.1,116.3,142.8,123,142.5,123.9z M148,124.9C148,125,148,125,148,124.9c0,1.4,0.9,12.4,0.7,13.7c-0.3,1.6-1.3,1.5-1.3,1.5
		s-1.1,0.1-1.3-1.5c-0.2-1.3,0.5-12.3,0.5-13.6c0,0,0,0,0,0c-0.3-1.3-2.2-1-2.2-4.5c0-2.6,1.6-4.8,2.9-4.8c0,0,0,0,0,0c0,0,0,0,0,0
		c0,0,0,0,0.1,0c1.3,0.1,2.9,2.1,2.9,4.7C150.1,123.9,148.3,123.7,148,124.9z"/>
</g>
<g>
	<path d="M187.2,110.7c-9.5,0-17.1,7.7-17.1,17.2c0,9.5,7.7,17.1,17.2,17.1c9.5,0,17.1-7.7,17.1-17.2
		C204.4,118.3,196.7,110.6,187.2,110.7z M197.9,128.1c-0.2,0.2-0.5,0.4-0.8,0.4c-0.3,0-0.4-0.1-0.4-0.1c-0.3-0.2-0.6-0.4-0.8-0.6
		c-0.2-0.2-0.3-0.1-0.3,0.2l0.1,6.3c0,0.3-0.1,0.8-0.2,1l-1,1c-0.3,0.1-0.7,0.2-1,0.2l-3.5,0c-0.3,0-0.5-0.2-0.6-0.5l-0.1-5.6
		c0-0.3-0.3-0.5-0.6-0.5l-2.6,0c-0.3,0-0.5,0.3-0.5,0.6l0.1,5.6c0,0.3-0.2,0.5-0.5,0.6l-3.5,0c-0.3,0-0.8-0.1-1-0.2l-1-1
		c-0.1-0.3-0.2-0.7-0.2-1l-0.1-6.3c0-0.3-0.2-0.4-0.3-0.2c-0.2,0.2-0.6,0.4-0.8,0.5c0,0-0.7,0.3-1.2-0.2c-0.5-0.5-0.2-1.2-0.2-1.2
		c0.1-0.3,0.4-0.7,0.6-0.9l9.7-9.9c0.2-0.2,0.6-0.2,0.8,0l4,3.9c0.2,0.2,0.4,0.1,0.4-0.2l0-1.3c0-0.3,0.2-0.5,0.5-0.6l1.1,0
		c0.3,0,0.5,0.2,0.6,0.5l0,3.5c0,0.3,0.2,0.7,0.4,0.9l2.9,2.9c0.2,0.2,0.5,0.6,0.6,0.9C198.1,126.9,198.4,127.6,197.9,128.1z"/>
</g>
<g>
	<path d="M229.5,127.8c-1,0-1.8,0.8-1.7,1.8s0.8,1.8,1.8,1.7s1.8-0.8,1.7-1.8C231.3,128.5,230.4,127.8,229.5,127.8z"/>
	<path d="M229.5,110c-9.5,0-17.1,7.7-17.1,17.2c0,9.5,7.7,17.1,17.2,17.1c9.5,0,17.1-7.7,17.1-17.2C246.6,117.6,238.9,110,229.5,110
		z M233.7,114.6c1.7,0,3.2,1.4,3.2,3.1s-1.4,3.2-3.1,3.2s-3.2-1.4-3.2-3.1C230.5,116.1,231.9,114.7,233.7,114.6z M225.1,117.8
		c1.7,0,3.2,1.4,3.2,3.1c0,1.7-1.4,3.2-3.1,3.2c-1.7,0-3.2-1.4-3.2-3.1C221.9,119.3,223.3,117.9,225.1,117.8z M236.3,133.9l0.1,3.2
		c0,0.2-0.2,0.4-0.4,0.4l-3.1,0.1l-0.6-4.1c-0.1-0.8-0.8-1.5-1.7-1.5l-2,0c-0.8,0-1.5,0.7-1.6,1.5l-0.4,4.1l-2.8,0.1
		c-0.2,0-0.4-0.2-0.4-0.4l-0.1-3.2l-2.4,0.1c-0.2,0-0.4-0.2-0.4-0.4l-0.1-5.7c0-1.8,1.4-3.2,3.1-3.3l3.6-0.1c0.7,0,1.3,0.2,1.8,0.5
		l0-0.3c0-1.8,1.4-3.2,3.1-3.3l3.6-0.1c1.8,0,3.2,1.4,3.3,3.1l0.1,5.9C239,132.3,237.8,133.7,236.3,133.9z"/>
</g>
<path d="M286.9,34.7c0,0.2-0.2,0.4-0.5,0.5c-0.6,0.1-1.1,0.3-1.7,0.5c-1.4,0.4-2.9,0.8-4.3,1.1c-1.9,0.3-3.3,0.1-4.3-0.7
	c-1.1-0.8-1.7-2.3-1.6-3.7c0,0,0,0,0-0.1c0.1-1,0.5-1.9,1.3-2.5c0.7-0.6,1.7-1,2.6-1.1l0.4,0l-0.2-0.3c-0.3-0.6-0.4-1.2-0.4-1.9
	c0-0.5,0.2-0.9,0.4-1.3c0.6-1.1,1.8-1.8,3.1-1.8c1.2,0,2.3,0.7,3.1,2c0.7,1.2,0.9,2.6,1.1,3.9c0,0.1,0,0.2,0.1,0.3l0.9,5
	C286.9,34.6,286.9,34.6,286.9,34.7L286.9,34.7z M275.6,32.2c0,0.4,0,0.7,0.1,1.1c0.3,1.2,1.1,2.1,2.3,2.4c1.2,0.3,2.5,0,3.8-0.3
	c1.1-0.3,2.1-0.6,3.2-0.8l0.9-0.2l-0.8-4.8c0-0.1,0-0.2-0.1-0.3c-0.2-1.3-0.5-2.8-1.4-3.9c-0.5-0.6-1.2-0.9-1.9-1
	c-0.6,0-1.1,0.2-1.6,0.6c-0.4,0.3-0.6,0.8-0.6,1.2c-0.1,1.4,1.2,2.9,1.4,3.1c0.1,0.1,0.2,0.2,0.2,0.4c0,0.2-0.2,0.4-0.4,0.5
	c-0.1,0.1-0.3,0.1-0.5,0c-1.1-0.7-2.6-0.6-3.6,0.2C276,30.7,275.6,31.4,275.6,32.2z"/>
<path d="M298.3,28c-0.1,0-0.2-0.1-0.3-0.1l0,0l-0.1-0.1c-1.7-1.8-3.7-3.8-4.8-6.3c-1-2.1-1.1-4.8-0.3-6.8c0.6-1.5,1.7-2.7,3.1-3.3
	c0.7-0.3,1.5-0.4,2.2-0.4c0.9,0.1,1.9,0.4,2.7,1c0.9,0.6,1.6,1.5,2,2.5l0.3,0.8l0.7-0.3c1.3-0.6,3.1-1.2,4.8-1.1
	c0.2,0,0.5,0,0.7,0.1c0.9,0.2,1.8,0.5,2.5,1c0.9,0.6,1.5,1.5,1.8,2.4c0.5,1.6-0.1,3.5-1.4,4.9c-1.9,2-4.5,2.5-7,3
	c-2,0.4-4,0.8-5.6,1.9c-0.1,0-0.2,0.1-0.2,0.1l-0.3,0.1l-0.2,0.3c0,0,0,0.1-0.1,0.1C298.8,27.9,298.6,28,298.3,28z M298,12.3
	c-2-0.1-3.4,1.4-4,2.8c-1.7,4,0.9,7.6,3.9,10.9l0.5,0.5l0.6-0.4c1.9-1.2,4-1.7,6.1-2.1l0.6-0.1c2.3-0.5,4.8-1.1,6.1-3.2
	c1-1.7,0.7-3.6-0.8-4.7c-0.3-0.2-0.7-0.4-1.1-0.6c-0.4-0.1-0.8-0.2-1.2-0.2c-2-0.1-4,0.8-5.8,1.6c-0.1,0.1-0.3,0.1-0.4,0.1
	c-0.1,0-0.2,0-0.3-0.1c-0.2-0.1-0.3-0.4-0.3-0.6c0-1.2-0.7-2.4-1.8-3.2c-0.5-0.3-1-0.6-1.6-0.7C298.3,12.3,298.2,12.3,298,12.3z"/>
</svg>
