<?xml version="1.0" encoding="utf-8"?>
<!-- Generator: Adobe Illustrator 26.3.1, SVG Export Plug-In . SVG Version: 6.00 Build 0)  -->
<svg version="1.1" id="Layer_1" xmlns="http://www.w3.org/2000/svg" xmlns:xlink="http://www.w3.org/1999/xlink" x="0px" y="0px"
	 viewBox="0 0 205.9 183.8" enable-background="new 0 0 205.9 183.8" xml:space="preserve" fill="#6abf4b">
<g>
	<path d="M186.2,156.4l-7.9-23.6c-0.4-1.3-0.3-2.8,0.3-4.1c5.9-11.5,8.4-25.1,5.8-39.4c-3.9-22-20-40.2-40.9-47.2
		c5.4,13,7,27.4,4.3,41.8c-5.5,29.1-28.8,52.2-58,57.5c-3.8,0.7-7.6,1-11.4,1.1c8.9,9.6,20.7,16.4,34,18.8
		c14.2,2.6,27.8,0.2,39.2-5.7c1.3-0.6,2.7-0.8,4-0.3l23.7,7.9C183.6,164.5,187.5,160.5,186.2,156.4z"/>
	<path d="M137.1,81.8c8.1-43.3-29.1-80.6-72.4-72.5c-24.7,4.6-44.4,24.6-48.8,49.3c-2.6,14.3-0.1,27.9,5.8,39.4
		c0.7,1.3,0.8,2.7,0.3,4.1l-7.9,23.6c-1.4,4.2,2.6,8.1,6.7,6.7l23.7-7.9c1.3-0.4,2.8-0.3,4,0.3c11.5,5.8,25,8.2,39.2,5.7
		C112.6,126.1,132.5,106.4,137.1,81.8z M49.8,56.2h52.5c3,0,5.5,2.5,5.5,5.5c0,3-2.4,5.5-5.5,5.5H49.8c-3,0-5.5-2.4-5.5-5.5
		C44.3,58.7,46.8,56.2,49.8,56.2z M80.5,89.1H49.8c-3,0-5.5-2.4-5.5-5.5c0-3,2.5-5.5,5.5-5.5h30.7c3,0,5.5,2.5,5.5,5.5
		C85.9,86.6,83.5,89.1,80.5,89.1z"/>
</g>
</svg>
