<?xml version="1.0" encoding="utf-8"?>
<!-- Generator: Adobe Illustrator 26.3.1, SVG Export Plug-In . SVG Version: 6.00 Build 0)  -->
<svg version="1.1" id="Layer_1" xmlns="http://www.w3.org/2000/svg" xmlns:xlink="http://www.w3.org/1999/xlink" x="0px" y="0px"
	 viewBox="0 0 318.8 214.4" enable-background="new 0 0 318.8 214.4" xml:space="preserve" fill='white'>
<g>
	<g>
		<path d="M63.5,170.1c3.2-24.6,10.7-44.8,22.4-60.3c-3.4-1.9-7-3.3-10.8-4.3c10.5-5.2,17.7-16.2,17.3-28.8
			C92,60.2,78.5,46.7,62,46.3C44.4,45.9,30,60,30,77.5c0,12.3,7.1,22.9,17.3,28c-19.5,5-34.6,21.5-38.7,53.2
			c-1.3,9.8,6.4,18.4,16.2,18.4h38.4C63.1,174.8,63.2,172.4,63.5,170.1z"/>
	</g>
	<g>
		<path d="M301.9,158.8c-4.1-31.7-19.2-48.2-38.7-53.2c10.5-5.2,17.7-16.2,17.3-28.8c-0.4-16.5-13.9-30-30.5-30.4
			c-17.6-0.4-32,13.7-32,31.2c0,12.3,7.1,22.9,17.3,28c-3.8,1-7.4,2.4-10.8,4.3c11.7,15.4,19.2,35.7,22.4,60.3
			c0.3,2.4,0.4,4.8,0.3,7.1h38.4C295.5,177.2,303.1,168.5,301.9,158.8z"/>
	</g>
	<path d="M101.7,199h107.1c14.5,0,25.8-12.7,24-27.1c-1.9-14.6-5.4-27-10.1-37.5c-0.3-0.7-0.6-1.4-1-2c-1.1-2.2-2.2-4.3-3.4-6.3
		c-0.4-0.6-0.8-1.3-1.1-1.9c-0.8-1.4-1.7-2.7-2.6-3.9c-0.3-0.4-0.6-0.8-0.9-1.2c-0.1-0.2-0.2-0.3-0.4-0.5c-0.5-0.7-1-1.3-1.5-1.9
		c-0.9-1.2-1.9-2.3-2.9-3.4c-0.7-0.7-1.3-1.4-2-2.1c-1-1-2.1-2-3.1-3c-1.1-1-2.2-1.9-3.3-2.7c-0.7-0.6-1.5-1.1-2.3-1.7
		c-0.8-0.5-1.5-1.1-2.3-1.6c-1.2-0.8-2.4-1.5-3.6-2.2c-5.2-2.9-10.8-5.2-16.6-6.7l0,0l0,0c3.6-1.8,7-4.1,10-6.8
		c0.4-0.3,0.8-0.7,1.1-1c0.6-0.6,1.2-1.1,1.7-1.7c0.7-0.8,1.5-1.6,2.1-2.4c6.8-8.3,10.8-18.9,10.5-30.6c-0.1-3.7-0.6-7.3-1.6-10.8
		c-0.1-0.2-0.1-0.4-0.2-0.6c-0.5-1.9-1.2-3.7-1.9-5.4c-0.1-0.2-0.2-0.5-0.3-0.7c-0.4-0.9-0.8-1.8-1.3-2.6c-0.2-0.3-0.3-0.6-0.5-0.9
		c-0.4-0.6-0.7-1.2-1.1-1.9c-0.2-0.3-0.4-0.6-0.6-0.9c-0.4-0.6-0.8-1.2-1.2-1.8c-0.8-1.2-1.7-2.3-2.7-3.4c-0.5-0.5-1-1.1-1.4-1.6
		c-0.2-0.3-0.5-0.5-0.8-0.8c-0.6-0.6-1.3-1.3-2-1.9c-0.4-0.3-0.7-0.6-1.1-0.9c-0.7-0.6-1.5-1.2-2.3-1.8c-0.6-0.4-1.2-0.9-1.8-1.3
		c-0.5-0.3-1-0.7-1.6-1c-1.9-1.2-4-2.2-6.1-3.1c-0.2-0.1-0.4-0.2-0.6-0.3c-4.9-2-10.3-3.1-15.9-3.3c-0.4,0-0.8,0-1.2,0
		c-0.2,0-0.4,0-0.5,0c-0.2,0-0.4,0-0.7,0c-0.2,0-0.4,0-0.5,0c-0.2,0-0.4,0-0.7,0c-0.2,0-0.4,0-0.5,0c-0.2,0-0.4,0-0.6,0
		c-0.2,0-0.4,0-0.5,0c-0.2,0-0.4,0-0.6,0.1c-0.2,0-0.4,0-0.5,0.1c-0.2,0-0.4,0-0.6,0.1c-0.2,0-0.3,0-0.5,0.1c-0.2,0-0.4,0.1-0.6,0.1
		c-0.2,0-0.3,0.1-0.5,0.1c-0.2,0-0.4,0.1-0.6,0.1c-0.2,0-0.3,0.1-0.5,0.1c-0.2,0-0.4,0.1-0.6,0.1c-0.2,0-0.3,0.1-0.5,0.1
		c-0.2,0-0.4,0.1-0.6,0.1c-0.2,0-0.3,0.1-0.5,0.1c-0.2,0.1-0.4,0.1-0.6,0.2c-0.2,0-0.3,0.1-0.5,0.1c-0.2,0.1-0.4,0.1-0.6,0.2
		c-0.2,0-0.3,0.1-0.5,0.1c-0.2,0.1-0.4,0.1-0.6,0.2c-0.2,0-0.3,0.1-0.5,0.1c-0.2,0.1-0.4,0.1-0.6,0.2c-0.1,0.1-0.3,0.1-0.4,0.2
		c-0.2,0.1-0.4,0.1-0.6,0.2c-0.1,0.1-0.3,0.1-0.4,0.2c-0.2,0.1-0.4,0.2-0.6,0.2c-0.1,0.1-0.3,0.1-0.4,0.2c-0.2,0.1-0.4,0.2-0.6,0.3
		c-0.1,0.1-0.3,0.1-0.4,0.2c-0.2,0.1-0.4,0.2-0.6,0.3c-0.1,0.1-0.3,0.1-0.4,0.2c-0.2,0.1-0.4,0.2-0.6,0.3c-0.1,0.1-0.3,0.1-0.4,0.2
		c-0.2,0.1-0.4,0.2-0.6,0.3c-0.1,0.1-0.3,0.1-0.4,0.2c-0.2,0.1-0.4,0.2-0.6,0.3c-0.1,0.1-0.2,0.1-0.4,0.2c-0.2,0.1-0.4,0.2-0.6,0.3
		c-0.1,0.1-0.2,0.1-0.4,0.2c-0.2,0.1-0.4,0.2-0.6,0.4c-0.1,0.1-0.2,0.1-0.4,0.2c-0.2,0.1-0.4,0.3-0.6,0.4c-0.1,0.1-0.2,0.2-0.3,0.2
		c-0.2,0.1-0.4,0.3-0.6,0.4c-0.1,0.1-0.2,0.2-0.3,0.2c-0.2,0.1-0.4,0.3-0.6,0.4c-0.1,0.1-0.2,0.2-0.3,0.2c-0.2,0.1-0.4,0.3-0.6,0.4
		c-0.1,0.1-0.2,0.2-0.3,0.2c-0.2,0.1-0.4,0.3-0.6,0.4c-0.1,0.1-0.2,0.2-0.3,0.2c-0.2,0.2-0.4,0.3-0.6,0.5c-0.1,0.1-0.2,0.2-0.3,0.3
		c-0.2,0.2-0.4,0.3-0.5,0.5c-0.1,0.1-0.2,0.2-0.3,0.3c-0.2,0.2-0.4,0.3-0.5,0.5c-0.1,0.1-0.2,0.2-0.3,0.3c-0.2,0.2-0.4,0.3-0.5,0.5
		c-0.1,0.1-0.2,0.2-0.3,0.3c-0.2,0.2-0.3,0.3-0.5,0.5c-0.1,0.1-0.2,0.2-0.3,0.3c-0.2,0.2-0.3,0.3-0.5,0.5c-0.1,0.1-0.2,0.2-0.3,0.3
		c-0.2,0.2-0.3,0.4-0.5,0.5c-0.1,0.1-0.2,0.2-0.3,0.3c-0.2,0.2-0.3,0.4-0.5,0.6c-0.1,0.1-0.2,0.2-0.3,0.3c-0.2,0.2-0.3,0.4-0.5,0.6
		c-0.1,0.1-0.2,0.2-0.2,0.3c-0.2,0.2-0.3,0.4-0.4,0.6c-0.1,0.1-0.2,0.2-0.2,0.3c-0.1,0.2-0.3,0.4-0.4,0.6c-0.1,0.1-0.2,0.2-0.2,0.3
		c-0.1,0.2-0.3,0.4-0.4,0.6c-0.1,0.1-0.2,0.2-0.2,0.3c-0.1,0.2-0.3,0.4-0.4,0.6c-0.1,0.1-0.1,0.2-0.2,0.3c-0.1,0.2-0.3,0.4-0.4,0.6
		c-0.1,0.1-0.1,0.2-0.2,0.3c-0.1,0.2-0.2,0.4-0.4,0.6c-0.1,0.1-0.1,0.2-0.2,0.3c-0.1,0.2-0.2,0.4-0.4,0.6c-0.1,0.1-0.1,0.2-0.2,0.4
		c-0.1,0.2-0.2,0.4-0.3,0.6c-0.1,0.1-0.1,0.2-0.2,0.4c-0.1,0.2-0.2,0.4-0.3,0.6c-0.1,0.1-0.1,0.2-0.2,0.4c-0.1,0.2-0.2,0.4-0.3,0.6
		c-0.1,0.1-0.1,0.3-0.2,0.4c-0.1,0.2-0.2,0.4-0.3,0.6c-0.1,0.1-0.1,0.3-0.2,0.4c-0.1,0.2-0.2,0.4-0.3,0.6c-0.1,0.1-0.1,0.3-0.2,0.4
		c-0.1,0.2-0.2,0.4-0.3,0.7c-0.1,0.1-0.1,0.3-0.2,0.4c-0.1,0.2-0.2,0.4-0.2,0.7c0,0.1-0.1,0.3-0.1,0.4c-0.1,0.2-0.1,0.4-0.2,0.7
		c0,0.1-0.1,0.3-0.1,0.4c-0.1,0.2-0.1,0.4-0.2,0.7c0,0.1-0.1,0.3-0.1,0.4c-0.1,0.2-0.1,0.4-0.2,0.7c0,0.1-0.1,0.3-0.1,0.4
		c-0.1,0.2-0.1,0.4-0.2,0.7c0,0.2-0.1,0.3-0.1,0.5c-0.1,0.2-0.1,0.4-0.1,0.7c0,0.2-0.1,0.3-0.1,0.5c0,0.2-0.1,0.5-0.1,0.7
		c0,0.2-0.1,0.3-0.1,0.5c0,0.2-0.1,0.5-0.1,0.7c0,0.2-0.1,0.3-0.1,0.5c0,0.2-0.1,0.5-0.1,0.7c0,0.2,0,0.3-0.1,0.5
		c0,0.2-0.1,0.5-0.1,0.7c0,0.2,0,0.3-0.1,0.5c0,0.2,0,0.5-0.1,0.7c0,0.1,0,0.3,0,0.4c0,0.3,0,0.5,0,0.8c0,0.1,0,0.3,0,0.4
		c0,0.3,0,0.6,0,0.8c0,0.1,0,0.2,0,0.4c0,0.4,0,0.8,0,1.2c0,7.9,2,15.4,5.5,21.9c1.5,2.8,3.3,5.4,5.3,7.8c0.7,0.8,1.4,1.6,2.1,2.3
		c0.4,0.4,0.7,0.7,1.1,1.1c3.4,3.3,7.3,6,11.5,8.2l0,0l0,0c-1.6,0.4-3.3,0.9-4.9,1.4c-0.3,0.1-0.6,0.2-0.9,0.3
		c-1.3,0.5-2.6,1-3.9,1.5c-2.6,1.1-5.2,2.4-7.6,3.8c-0.3,0.2-0.6,0.4-1,0.6c-2.6,1.6-5.1,3.4-7.6,5.3c-0.4,0.3-0.7,0.6-1.1,0.9
		c-2.5,2.2-4.9,4.5-7.2,7.1c-1,1.1-1.9,2.3-2.9,3.5c-1.2,1.6-2.4,3.3-3.6,5.1c-0.3,0.4-0.6,0.9-0.9,1.3c-0.5,0.7-0.9,1.5-1.4,2.2
		c-0.4,0.6-0.7,1.3-1.1,1.9c-0.5,1-1,1.9-1.5,2.9c-0.7,1.3-1.3,2.7-2,4.1c-0.5,1.2-1.1,2.5-1.6,3.7c-0.4,1.1-0.9,2.2-1.3,3.4
		c-0.2,0.6-0.4,1.1-0.6,1.7c-0.3,1-0.7,2-1,3c-0.7,2.1-1.3,4.3-1.9,6.6c-0.2,1-0.5,1.9-0.7,2.9c-0.3,1.5-0.7,2.9-1,4.5
		c-0.3,1.4-0.5,2.7-0.8,4.1c-0.4,2.1-0.7,4.2-1,6.4c-0.1,0.9-0.2,1.8-0.2,2.7c0,0.4,0,0.9,0,1.3c0,0.4,0,0.9,0.1,1.3
		c0,0.4,0.1,0.9,0.2,1.3c0.1,0.4,0.1,0.8,0.2,1.3c0.2,0.8,0.4,1.7,0.6,2.5c0.3,0.8,0.6,1.6,0.9,2.4c0.5,1.2,1.1,2.3,1.8,3.3
		c0.2,0.4,0.5,0.7,0.7,1C86.4,195,93.5,199,101.7,199z"/>
</g>
</svg>
