<?xml version="1.0" encoding="utf-8"?>
<!-- Generator: Adobe Illustrator 26.3.1, SVG Export Plug-In . SVG Version: 6.00 Build 0)  -->
<svg version="1.1" id="Layer_1" xmlns="http://www.w3.org/2000/svg" xmlns:xlink="http://www.w3.org/1999/xlink" x="0px" y="0px"
	 viewBox="0 0 313.8 284.4" enable-background="new 0 0 313.8 284.4" xml:space="preserve" fill='#6abf4b'>
<path d="M45.3,15.4c0,0,7.7-4.9,11.8-4.9c4,0,22.5,0,22.5,0s6,1,8.8,7.3c2.8,6.3,21.8,50.6,23.2,54c1.4,3.4,5.1,11.9-0.8,19.5
	c-5.9,7.6-18.3,21.7-18.3,21.7s-4.9,4.4-0.7,11.4c4.2,7,19.2,30,38.7,47.4c19.5,17.4,43.5,30.2,55.4,34.1
	c11.9,3.9,14.5-1.3,19.1-7.1c4.6-5.8,18.8-23.7,18.8-23.7s4.9-7.1,14.5-2.8c9.6,4.4,56.5,26.9,56.5,26.9s5.7,1,6,7.3
	c0.3,6.3,4.3,25.3-12.7,43.5c-17,18.2-53.1,26.6-70.2,21.9c-17.1-4.7-73.7-19.4-110.6-53.6c-36.9-34.2-66.8-70.1-79-96.6
	C16.2,95.1,16.8,79.4,17.5,72C18.2,64.5,22.1,30.2,45.3,15.4L45.3,15.4z"/>
</svg>
