<?xml version="1.0" encoding="utf-8"?>
<!-- Generator: Adobe Illustrator 26.3.1, SVG Export Plug-In . SVG Version: 6.00 Build 0)  -->
<svg version="1.1" id="Layer_1" xmlns="http://www.w3.org/2000/svg" xmlns:xlink="http://www.w3.org/1999/xlink" x="0px" y="0px"
	 viewBox="0 0 231.5 307.6" enable-background="new 0 0 231.5 307.6" xml:space="preserve" fill="#5ca840">
<g>
	<path d="M189.7,170.3c-4.6,0-8.7,2-11.6,5.2c-0.6-8.1-7.3-14.5-15.5-14.5c-4.6,0-8.7,2-11.6,5.2c-0.6-8.1-7.3-14.5-15.5-14.5
		c-4.6,0-8.7,2-11.5,5.1v-52.6c0-8.6-7-15.6-15.6-15.6c-8.6,0-15.6,7-15.6,15.6l0,104.3l-7.8-17.5c-3.3-7.6-8.3-12.8-14.8-15.2
		c-10.9-4.1-22,0.9-22.5,1.2c-1,0.5-1.4,1.7-1,2.7l45.5,101c0.3,0.7,1,1.2,1.8,1.2h108.9c1.1,0,2-0.9,2-2v-94.1
		C205.2,177.3,198.2,170.3,189.7,170.3z"/>
	<path d="M108.5,59.9c4.5,0,8.1-3.6,8.1-8.1V23.3c0-4.5-3.6-8.1-8.1-8.1c-4.5,0-8.1,3.6-8.1,8.1v28.5
		C100.4,56.3,104,59.9,108.5,59.9z"/>
	<path d="M62.9,74c1.6,1.6,3.6,2.4,5.7,2.4c2.1,0,4.1-0.8,5.7-2.4c3.2-3.2,3.2-8.3,0-11.4L54.2,42.5c-3.2-3.2-8.3-3.2-11.4,0
		c-3.2,3.2-3.2,8.3,0,11.4L62.9,74z"/>
	<path d="M60.2,108.2c0-4.5-3.6-8.1-8.1-8.1H23.6c-4.5,0-8.1,3.6-8.1,8.1c0,4.5,3.6,8.1,8.1,8.1h28.5
		C56.6,116.3,60.2,112.6,60.2,108.2z"/>
	<path d="M148.3,76.4c2.1,0,4.1-0.8,5.7-2.4l20.2-20.2c3.2-3.2,3.2-8.3,0-11.4c-3.2-3.2-8.3-3.2-11.4,0l-20.2,20.2
		c-3.2,3.2-3.2,8.3,0,11.4C144.2,75.6,146.3,76.4,148.3,76.4z"/>
	<path d="M156.8,108.2c0,4.5,3.6,8.1,8.1,8.1h28.5c4.5,0,8.1-3.6,8.1-8.1c0-4.5-3.6-8.1-8.1-8.1h-28.5
		C160.4,100.1,156.8,103.7,156.8,108.2z"/>
</g>
</svg>
