<?xml version="1.0" encoding="utf-8"?>
<!-- Generator: Adobe Illustrator 26.3.1, SVG Export Plug-In . SVG Version: 6.00 Build 0)  -->
<svg version="1.1" id="Layer_1" xmlns="http://www.w3.org/2000/svg" xmlns:xlink="http://www.w3.org/1999/xlink" x="0px" y="0px"
	 viewBox="0 0 339.8 252.4" enable-background="new 0 0 339.8 252.4" xml:space="preserve" fill='#6abf4b'>
<g>
	<path d="M274,12.5H60.8c-22.2,0-40.4,15.5-40.4,34.4v105.5c0,18.9,18.2,34.4,40.4,34.4h62.7l54.9,56.3l46.5-56.3H274
		c22.2,0,40.4-15.5,40.4-34.4V46.9C314.4,27.9,296.2,12.5,274,12.5z M178.1,150.5c-3.4,2.5-8.1,2.5-11.5,0.1
		c-27.2-19.4-52.4-41.7-51.6-64.1c0.9-24.1,21.7-37.6,39.4-31.4c11.9,4.2,16.6,11.9,17.4,13.4c0.8-1.5,5.5-9.3,17.3-13.6
		c17.6-6.5,38.6,6.9,39.8,30.9C230.1,108.2,205.1,130.8,178.1,150.5z"/>
</g>
</svg>
