<?xml version="1.0" encoding="utf-8"?>
<!-- Generator: Adobe Illustrator 26.3.1, SVG Export Plug-In . SVG Version: 6.00 Build 0)  -->
<svg version="1.1" id="Layer_1" xmlns="http://www.w3.org/2000/svg" xmlns:xlink="http://www.w3.org/1999/xlink" x="0px" y="0px"
	 viewBox="0 0 216.8 207.4" enable-background="new 0 0 216.8 207.4" xml:space="preserve" fill='#6abf4b'>
<g>
	<path d="M176,33.7c-37.5-37.3-98.7-37-135.7,0.8C10.5,64.9,5.1,110.2,24,146c1.4,2.7,1.9,5.9,1.2,8.9l-6.6,30.1
		c-0.8,3.7,2.5,7,6.2,6.2l30.1-6.6c3-0.7,6.2-0.2,8.9,1.2c36.1,19.1,81.8,13.4,112.2-17C213.5,131.6,213.5,71,176,33.7z M80.6,108.3
		c0,4.3-3.5,7.8-7.8,7.8H59c-4.3,0-7.8-3.5-7.8-7.8V94.6c0-4.3,3.5-7.8,7.8-7.8h13.7c4.3,0,7.8,3.5,7.8,7.8V108.3z M123.3,108.3
		c0,4.3-3.5,7.8-7.8,7.8h-13.7c-4.3,0-7.8-3.5-7.8-7.8V94.6c0-4.3,3.5-7.8,7.8-7.8h13.7c4.3,0,7.8,3.5,7.8,7.8V108.3z M166,108.3
		c0,4.3-3.5,7.8-7.8,7.8h-13.7c-4.3,0-7.8-3.5-7.8-7.8V94.6c0-4.3,3.5-7.8,7.8-7.8h13.7c4.3,0,7.8,3.5,7.8,7.8V108.3z"/>
</g>
</svg>
