<?xml version="1.0" encoding="utf-8"?>
<!-- Generator: Adobe Illustrator 26.3.1, SVG Export Plug-In . SVG Version: 6.00 Build 0)  -->
<svg version="1.1" id="Layer_1" xmlns="http://www.w3.org/2000/svg" xmlns:xlink="http://www.w3.org/1999/xlink" x="0px" y="0px"
	 viewBox="0 0 304.8 257.4" enable-background="new 0 0 304.8 257.4" xml:space="preserve" fill='white'>
<g>
	<path d="M266.1,25.3v-3.7c0-3.1-2.5-5.7-5.7-5.7h-5.7c-3.1,0-5.7,2.5-5.7,5.7v3.3h-24.7v-3.3c0-3.1-2.5-5.7-5.7-5.7H213
		c-3.1,0-5.7,2.5-5.7,5.7v3.3h-24.7v-3.3c0-3.1-2.5-5.7-5.7-5.7h-5.7c-3.1,0-5.7,2.5-5.7,5.7v3.3h-24.7v-3.3c0-3.1-2.5-5.7-5.7-5.7
		h-5.7c-3.1,0-5.7,2.5-5.7,5.7v3.3H99.1v-3.3c0-3.1-2.5-5.7-5.7-5.7h-5.7c-3.1,0-5.7,2.5-5.7,5.7v3.3H57.3v-3.3
		c0-3.1-2.5-5.7-5.7-5.7H46c-3.1,0-5.7,2.5-5.7,5.7v3.7c-14.2,2.4-25,14.7-25,29.5v157.3c0,16.5,13.4,29.9,29.9,29.9h216
		c16.5,0,29.9-13.4,29.9-29.9V54.8C291.1,40,280.3,27.7,266.1,25.3z M276.5,212.1c0,8.4-6.9,15.3-15.3,15.3h-216
		c-8.4,0-15.3-6.9-15.3-15.3V70.9h246.6V212.1z"/>
	<polygon points="69.3,189.7 85.7,189.7 85.7,122.2 109.8,122.2 109.8,108.4 45.2,108.4 45.2,122.2 69.3,122.2 	"/>
	<path d="M121.1,189.7l6.7-18.5h32.5l7.1,18.5h17.9l-32.5-81.3h-17.4l-31.7,81.3H121.1z M143.8,127.4l11.2,30.2h-22.2L143.8,127.4z"
		/>
	<polygon points="205.4,189.7 223.4,161.6 241.5,189.7 261.2,189.7 233.5,147.9 258.8,108.4 239.7,108.4 223.8,134.5 207.5,108.4 
		188.3,108.4 213.5,147.3 185.7,189.7 	"/>
</g>
</svg>
